<?xml version="1.0"?><svg fill="#000000" xmlns="http://www.w3.org/2000/svg"  viewBox="0 0 24 24" width="32px" height="32px">    <path d="M 11.5 2 L 11.201172 2.0039062 L 11.255859 4.0039062 L 11.501953 4 L 11.505859 4 C 12.314859 4 13.111047 4.1204219 13.873047 4.3574219 L 14.466797 2.4472656 C 13.511797 2.1492656 12.516859 2 11.505859 2 L 11.5 2 z M 9.015625 2.3105469 C 7.930625 2.5885469 6.9150938 3.0421094 5.9960938 3.6621094 L 7.1132812 5.3203125 C 7.8422812 4.8303125 8.6487187 4.4680469 9.5117188 4.2480469 L 9.015625 2.3105469 z M 16.490234 3.3398438 L 15.478516 5.0644531 C 16.246516 5.5134531 16.915797 6.0847656 17.466797 6.7597656 L 19.015625 5.4921875 C 18.312625 4.6331875 17.464234 3.9098437 16.490234 3.3398438 z M 4.3144531 5.1113281 C 3.5454531 5.9523281 2.9545937 6.9081719 2.5585938 7.9511719 L 4.4277344 8.6621094 C 4.7337344 7.8561094 5.1920156 7.1159375 5.7910156 6.4609375 L 4.3144531 5.1113281 z M 11.5 6 C 8.462 6 6 8.239 6 11 C 6 12.651 6.8832344 14.110484 8.2402344 15.021484 L 8.40625 17.78125 L 10.904297 15.96875 C 11.100297 15.98875 11.299 16 11.5 16 C 14.538 16 17 13.761 17 11 C 17 8.239 14.538 6 11.5 6 z M 20.203125 7.3847656 L 18.388672 8.2246094 C 18.754672 9.0166094 18.958141 9.8576094 18.994141 10.724609 L 20.992188 10.642578 C 20.946188 9.5125781 20.680125 8.4167656 20.203125 7.3847656 z M 2.0429688 10.136719 C 2.0149688 10.420719 2 10.708 2 11 C 2 11.841 2.1232344 12.672609 2.3652344 13.474609 L 4.2792969 12.894531 C 4.0942969 12.281531 4 11.644953 4 11.001953 C 4 10.777953 4.0112031 10.556891 4.0332031 10.337891 L 2.0429688 10.136719 z M 18.841797 12.439453 C 18.652797 13.279453 18.301828 14.072875 17.798828 14.796875 L 19.439453 15.939453 C 20.092453 15.002453 20.548969 13.972953 20.792969 12.876953 L 18.841797 12.439453 z M 4.9902344 14.46875 L 3.2851562 15.515625 C 3.6781563 16.154625 4.1532187 16.746344 4.6992188 17.277344 L 4.8066406 17.677734 L 6.7382812 17.158203 L 6.4824219 16.201172 L 6.265625 16.005859 C 5.764625 15.548859 5.3362344 15.03175 4.9902344 14.46875 z M 16.636719 16.091797 C 15.978719 16.669797 15.224531 17.126219 14.394531 17.449219 L 15.121094 19.3125 C 16.168094 18.9045 17.122078 18.326703 17.955078 17.595703 L 16.636719 16.091797 z M 12.693359 17.902344 C 12.447359 17.939344 12.198 17.963562 12 17.976562 C 11.827 17.976562 11.826391 17.975281 9.6503906 18.738281 L 10.3125 20.626953 L 12.199219 19.966797 C 12.465219 19.947797 12.728281 19.918859 12.988281 19.880859 L 12.693359 17.902344 z M 7.265625 19.128906 L 5.3339844 19.646484 L 6.0019531 22.136719 L 8.4355469 21.283203 L 7.7753906 19.396484 L 7.375 19.535156 L 7.265625 19.128906 z"/></svg>